<svg width="117" height="109" viewBox="0 0 117 109" fill="none" xmlns="http://www.w3.org/2000/svg">
<path d="M36.01 106.56H6.71997V77.6997C6.71997 69.6097 13.2799 63.0498 21.3699 63.0498C29.4599 63.0498 36.02 69.6097 36.02 77.6997V106.56H36.01Z" stroke="white" stroke-width="4" stroke-linecap="round" stroke-linejoin="round"/>
<path d="M51.51 94.27L64.71 106.56H51.6899L45.0698 100.37" stroke="white" stroke-width="4" stroke-linecap="round" stroke-linejoin="round"/>
<path d="M22.0498 77.3398L43.5698 101.93L53.4299 91.7397L32.5498 68.2397" stroke="white" stroke-width="4" stroke-linecap="round" stroke-linejoin="round"/>
<path d="M79.45 106.56H114.08V72.4297C114.08 62.8697 106.33 55.1099 96.76 55.1099C87.2 55.1099 79.4399 62.8597 79.4399 72.4297V106.56H79.45Z" stroke="white" stroke-width="4" stroke-linecap="round" stroke-linejoin="round"/>
<path d="M95.96 72.0098L70.52 101.08L58.8599 89.04L83.5498 61.25" stroke="white" stroke-width="4" stroke-linecap="round" stroke-linejoin="round"/>
<path d="M41.6399 2H76.0798C79.0398 2 81.45 4.39963 81.45 7.36963V22.0498C81.45 25.0098 79.0498 27.4199 76.0798 27.4199H72.51V35.1997L62.9199 27.4199H41.6399C38.6799 27.4199 36.27 25.0198 36.27 22.0498V7.36963C36.27 4.40963 38.6699 2 41.6399 2Z" stroke="white" stroke-width="4" stroke-linecap="round" stroke-linejoin="round"/>
<path d="M106.47 35.8099C107.3 42.5899 103.11 48.5095 97.1399 50.4095V55.1097H88.02C83.35 55.1097 79.5598 51.3198 79.5598 46.6498V37.5199C79.5598 29.5299 86.4999 23.1597 94.6699 24.1097C100.77 24.8097 105.73 29.7197 106.47 35.8197V35.8099Z" stroke="white" stroke-width="4" stroke-linecap="round" stroke-linejoin="round"/>
<path d="M9.35975 45.7702C8.61975 51.8402 12.3699 57.1498 17.7199 58.8498V63.0602H25.8898C30.0798 63.0602 33.4699 59.6701 33.4699 55.4801V47.3C33.4699 40.15 27.2598 34.4399 19.9298 35.2799C14.4598 35.9099 10.0198 40.3102 9.35975 45.7702Z" stroke="white" stroke-width="4" stroke-linecap="round" stroke-linejoin="round"/>
<path d="M33.3599 33.29H9.55981V45.8198H33.3599V33.29Z" stroke="white" stroke-width="4" stroke-linecap="round" stroke-linejoin="round"/>
<path d="M2 33.29H40.1399" stroke="white" stroke-width="4" stroke-linecap="round" stroke-linejoin="round"/>
</svg>
