<svg width="128" height="106" viewBox="0 0 128 106" fill="none" xmlns="http://www.w3.org/2000/svg">
<path d="M118.42 21.8599H20.4001C16.2801 21.8599 12.9399 25.1998 12.9399 29.3198V82.6401C12.9399 86.7602 16.2801 90.1001 20.4001 90.1001H118.42C122.54 90.1001 125.88 86.7602 125.88 82.6401V29.3198C125.88 25.1998 122.54 21.8599 118.42 21.8599Z" stroke="white" stroke-width="4" stroke-linecap="round" stroke-linejoin="round"/>
<path d="M85.05 90.1001H58.5801V104H85.05V90.1001Z" stroke="white" stroke-width="4" stroke-linecap="round" stroke-linejoin="round"/>
<path d="M37.76 104H107.64" stroke="white" stroke-width="4" stroke-linecap="round" stroke-linejoin="round"/>
<path d="M116.96 80.77L104.42 86.4702L96.1201 97.46L86.8801 64.5698L116.96 80.77Z" stroke="white" stroke-width="4" stroke-linecap="round" stroke-linejoin="round"/>
<path d="M43.9102 85.8198C67.0564 85.8198 85.8201 67.0564 85.8201 43.9102C85.8201 20.7639 67.0564 2 43.9102 2C20.7639 2 2 20.7639 2 43.9102C2 67.0564 20.7639 85.8198 43.9102 85.8198Z" stroke="white" stroke-width="4" stroke-linecap="round" stroke-linejoin="round"/>
<path d="M40.1602 2.16992L33.52 9.01025L35.1301 14.8599L27.8701 17.2803L26.6602 23.7402L35.74 20.3101L46.6401 25.96L47.6501 32.9199L37.1602 31.8101L31.9102 27.98L23.6401 38.6699V48.7603L30.3 51.1802H34.54L39.79 60.0601L38.5801 68.7402C38.5801 68.7402 44.4301 79.2301 45.6401 77.6201C46.8501 76.0101 53.1101 64.2998 53.1101 64.2998L52.1001 56.4302L58.3601 46.9502L56.1401 43.9199L63 39.0801L56.3401 32.9302H68.6501L71.27 38.48V47.1602L78.1301 37.8799L81.96 45.3501L85.8401 45.5498" stroke="white" stroke-width="4" stroke-linecap="round" stroke-linejoin="round"/>
</svg>
