<svg width="85" height="106" viewBox="0 0 85 106" fill="none" xmlns="http://www.w3.org/2000/svg">
<path d="M72.8799 17.3599H12.9299V89.5498H72.8799V17.3599Z" stroke="white" stroke-width="4" stroke-linecap="round" stroke-linejoin="round"/>
<path d="M34.9099 24.6802H20.0901V39.5H34.9099V24.6802Z" stroke="white" stroke-width="4" stroke-linecap="round" stroke-linejoin="round"/>
<path d="M20.0901 45.9702H64.0901" stroke="white" stroke-width="4" stroke-linecap="round" stroke-linejoin="round"/>
<path d="M20.0901 52.4399H64.0901" stroke="white" stroke-width="4" stroke-linecap="round" stroke-linejoin="round"/>
<path d="M20.0901 58.9102H64.0901" stroke="white" stroke-width="4" stroke-linecap="round" stroke-linejoin="round"/>
<path d="M20.0901 65.3799H64.0901" stroke="white" stroke-width="4" stroke-linecap="round" stroke-linejoin="round"/>
<path d="M20.0901 71.8501H41.3201" stroke="white" stroke-width="4" stroke-linecap="round" stroke-linejoin="round"/>
<path d="M43.5 28.6802H64.0901" stroke="white" stroke-width="4" stroke-linecap="round" stroke-linejoin="round"/>
<path d="M2.92993 43.3599V22.9502C2.92993 14.3402 9.91002 7.35986 18.52 7.35986H40.5801" stroke="white" stroke-width="4" stroke-linecap="round" stroke-linejoin="round"/>
<path d="M82.8799 63.5601V83.9702C82.8799 92.5802 75.9 99.5601 67.29 99.5601H45.23" stroke="white" stroke-width="4" stroke-linecap="round" stroke-linejoin="round"/>
<path d="M36.1599 2.9502L40.5701 7.35986L36.1599 11.77" stroke="white" stroke-width="4" stroke-linecap="round" stroke-linejoin="round"/>
<path d="M49.6399 103.97L45.23 99.5601L49.6399 95.1499" stroke="white" stroke-width="4" stroke-linecap="round" stroke-linejoin="round"/>
</svg>
