<svg width="89" height="115" viewBox="0 0 89 115" fill="none" xmlns="http://www.w3.org/2000/svg">
<path d="M63.96 2.37988H2.1001V87.3599H63.96V2.37988Z" stroke="white" stroke-width="4" stroke-linecap="round" stroke-linejoin="round"/>
<path d="M84.88 74.34C87.77 70.45 87.71 66.42 84.65 62.59C80.58 57.5 76.5002 52.4102 72.3602 47.3702C71.6402 46.4902 70.69 45.7103 69.69 45.1803C67.79 44.1703 65.7802 44.2799 64.3002 45.2599V53.8502C66.9902 57.4802 69.7102 61.0999 72.3502 64.7599C75.3902 68.9699 73.03 74.6501 67.89 75.4801C66.56 75.7001 65.1702 75.6202 63.8102 75.6202C59.0102 75.6202 56.2801 72.9103 56.2701 68.1403C56.2701 62.9303 56.3101 57.7199 56.2501 52.5099C56.2201 49.4599 53.9502 47.0399 51.0602 46.7799C48.3102 46.5199 45.7001 48.4201 45.0401 51.2501C44.8501 52.0401 44.88 52.8903 44.88 53.7203C44.88 73.1003 44.86 92.4702 44.9 111.85C44.9 111.92 44.9 111.98 44.9 112.04H71.15C70.47 109.07 69.7201 106.11 68.9901 103.15C68.0701 99.38 68.7002 96.0002 71.1202 92.8502C75.7902 86.7402 80.31 80.52 84.89 74.34H84.88Z" stroke="white" stroke-width="4" stroke-linecap="round" stroke-linejoin="round"/>
<path d="M49.2343 34.688C51.3529 25.7114 45.7938 16.7171 36.8173 14.5985C27.8407 12.4798 18.8462 18.0391 16.7275 27.0157C14.6089 35.9922 20.1685 44.9866 29.145 47.1052C38.1215 49.2239 47.1156 43.6645 49.2343 34.688Z" stroke="white" stroke-width="4" stroke-linecap="round" stroke-linejoin="round"/>
<path d="M17.04 26.4902H49.03" stroke="white" stroke-width="4" stroke-linecap="round" stroke-linejoin="round"/>
<path d="M17.04 35.7202H49.03" stroke="white" stroke-width="4" stroke-linecap="round" stroke-linejoin="round"/>
<path d="M39.1499 31.1001C39.1499 40.3201 33.03 47.7998 33.03 47.7998C33.03 47.7998 26.9099 40.3201 26.9099 31.1001C26.9099 21.8801 33.03 14.3999 33.03 14.3999C33.03 14.3999 39.1499 21.8801 39.1499 31.1001Z" stroke="white" stroke-width="4" stroke-linecap="round" stroke-linejoin="round"/>
<path d="M22.71 57.8398H43.3601" stroke="white" stroke-width="4" stroke-linecap="round" stroke-linejoin="round"/>
</svg>
