<svg width="126" height="92" viewBox="0 0 126 92" fill="none" xmlns="http://www.w3.org/2000/svg">
<path d="M98.84 16.8198L92.55 30.3501H29.1298C26.7498 30.3501 24.48 31.0701 22.59 32.3301C20.69 33.6001 19.1599 35.4201 18.2399 37.6201C16.1499 42.6401 19.84 48.1699 25.28 48.1699H43.57L56.1498 56.4302H66.8798L56.6999 48.1699H64.4599C67.2699 48.1699 70.08 47.8399 72.81 47.1899L106.17 39.2598V16.8198H98.84Z" stroke="white" stroke-width="4" stroke-linecap="round" stroke-linejoin="round"/>
<path d="M19.3501 36.6201H26.4399" stroke="white" stroke-width="4" stroke-linecap="round" stroke-linejoin="round"/>
<path d="M47 36.6201H50.54" stroke="white" stroke-width="4" stroke-linecap="round" stroke-linejoin="round"/>
<path d="M57.54 36.6201H61.0901" stroke="white" stroke-width="4" stroke-linecap="round" stroke-linejoin="round"/>
<path d="M68.0901 36.6201H71.6299" stroke="white" stroke-width="4" stroke-linecap="round" stroke-linejoin="round"/>
<path d="M78.6299 36.6201H82.1799" stroke="white" stroke-width="4" stroke-linecap="round" stroke-linejoin="round"/>
<path d="M112 2.9502H13.23C7.10998 2.9502 2.1499 7.90979 2.1499 14.0298V59.21C2.1499 65.33 7.10998 70.29 13.23 70.29H24.3601L44.26 89.4702L43.4099 70.29H112C118.12 70.29 123.08 65.33 123.08 59.21V14.0298C123.08 7.90979 118.12 2.9502 112 2.9502Z" stroke="white" stroke-width="4" stroke-linecap="round" stroke-linejoin="round"/>
</svg>
