<svg width="105" height="103" viewBox="0 0 105 103" fill="none" xmlns="http://www.w3.org/2000/svg">
<path d="M10.79 23.1301L22.52 32.3503L79.0801 3.6701C81.2001 2.5901 83.5501 2.21016 85.8101 2.48016C88.0801 2.75016 90.2601 3.68016 92.0801 5.23016C96.2101 8.76016 95.4201 15.36 90.5701 17.82L74.26 26.09L66.78 39.1501L57.21 44.0002L62.5601 32.0202L55.6399 35.53C53.1299 36.8 50.48 37.7801 47.75 38.4401L14.4099 46.4601L4.26001 26.4504L10.8 23.1301H10.79Z" stroke="white" stroke-width="4" stroke-linecap="round" stroke-linejoin="round"/>
<path d="M90.6399 4.83984L84.3201 8.0498" stroke="white" stroke-width="4" stroke-linecap="round" stroke-linejoin="round"/>
<path d="M65.98 17.3398L62.8201 18.9502" stroke="white" stroke-width="4" stroke-linecap="round" stroke-linejoin="round"/>
<path d="M56.5801 22.1099L53.4199 23.7202" stroke="white" stroke-width="4" stroke-linecap="round" stroke-linejoin="round"/>
<path d="M47.1699 26.8799L44.01 28.4902" stroke="white" stroke-width="4" stroke-linecap="round" stroke-linejoin="round"/>
<path d="M37.77 31.6499L34.6101 33.2598" stroke="white" stroke-width="4" stroke-linecap="round" stroke-linejoin="round"/>
<path d="M38.8898 73.1701C38.7898 72.9201 38.69 72.6701 38.59 72.4201C36.91 68.4201 39.0199 63.9604 43.1699 62.7404C43.9099 62.5204 44.6899 62.4601 45.4299 62.2301C50.6799 60.5801 55.9699 59.0301 61.1499 57.1901C65.2999 55.7101 69.24 55.9103 73.05 57.9503C77.04 60.0903 80.9301 62.4003 84.8701 64.6403C86.4501 65.5403 88.0098 66.4503 89.6398 67.3903C90.1898 66.4203 90.6799 65.5301 91.1999 64.6701C92.5299 62.4901 94.9899 61.7901 97.2299 62.9801C99.0599 63.9501 100.86 64.9699 102.64 66.0299C104.82 67.3299 105.49 69.8102 104.32 72.0602C103.83 72.9902 103.29 73.9002 102.78 74.8102C98.13 83.0302 93.49 91.2501 88.83 99.4601C87.37 102.04 84.87 102.73 82.28 101.29C80.56 100.34 78.8299 99.4003 77.1599 98.3703C75.0299 97.0703 74.38 94.6303 75.52 92.4103C75.95 91.5703 76.4299 90.76 76.9199 89.86C76.3099 89.5 75.6999 89.2102 75.1799 88.8102C74.2299 88.0902 73.2798 88.0703 72.1398 88.3903C64.5598 90.4703 56.9698 92.4799 49.3798 94.5099C45.2898 95.5999 41.45 95.05 37.85 92.84C26.46 85.83 15.0599 78.8399 3.6999 71.7799C2.7799 71.2099 1.92984 70.34 1.38984 69.4C-0.150156 66.73 -0.150048 63.9302 1.49995 61.3102C3.08995 58.7702 5.59994 57.91 8.48994 58.07C11.7399 58.26 14.58 59.6101 17.34 61.2101C23.47 64.7701 29.5899 68.35 35.7299 71.9C36.7099 72.46 37.76 72.89 38.78 73.38C38.83 73.31 38.8799 73.2303 38.9299 73.1603L38.8898 73.1701ZM87.9299 70.4C87.6899 70.23 87.5301 70.0904 87.3501 69.9904C82.5501 67.2104 77.7599 64.4201 72.9399 61.6701C70.5299 60.3001 67.9998 59.2003 65.1398 59.6603C63.7998 59.8703 62.4899 60.3399 61.2099 60.7999C55.6899 62.7799 50.1799 64.7603 44.4199 65.9303C42.2699 66.3703 41.0199 68.2899 41.4199 70.2999C41.8199 72.3199 43.7099 73.5599 45.9199 73.0299C49.6699 72.1299 53.3901 71.0802 57.1201 70.1002C57.3601 70.0402 57.59 69.9703 57.83 69.9103C59.1 69.5703 60 69.9701 60.29 71.0001C60.56 71.9701 60 72.7903 58.79 73.1403C56.87 73.6903 54.95 74.2704 53.01 74.7404C50.01 75.4704 47.0099 76.2102 43.9799 76.7702C40.5099 77.4202 37.2199 76.7503 34.1499 74.9503C28.0099 71.3403 21.8399 67.7603 15.6799 64.1803C13.3599 62.8303 10.9799 61.6501 8.23994 61.4401C4.94994 61.1901 2.85985 63.75 3.89985 66.88C4.15985 67.65 4.74988 68.48 5.42988 68.9C16.7899 75.96 28.19 82.9701 39.58 89.9801C42.5 91.7801 45.5999 92.0601 48.8999 91.1701C56.9599 88.9801 65.0201 86.8301 73.1001 84.7301C73.7301 84.5701 74.5499 84.7299 75.1699 85.0099C76.3099 85.5299 77.37 86.2403 78.57 86.9303C81.72 81.3603 84.8099 75.9 87.9199 70.4H87.9299ZM93.82 66.88C90.6 72.52 87.4099 78.17 84.2099 83.82C82.3799 87.06 80.5399 90.2902 78.7199 93.5402C78.0699 94.7002 78.17 95.1001 79.3 95.7501C80.82 96.6201 82.3498 97.49 83.8798 98.34C84.8498 98.88 85.3201 98.7602 85.8701 97.8102C90.9901 88.7702 96.1099 79.7301 101.23 70.6901C101.68 69.9001 101.54 69.29 100.74 68.84C99.0899 67.91 97.44 66.9702 95.79 66.0402C95.58 65.9202 95.3401 65.8603 94.8701 65.6803C94.5401 66.0503 94.09 66.4203 93.82 66.8903V66.88Z" fill="white"/>
</svg>
