<svg width="120" height="83" viewBox="0 0 120 83" fill="none" xmlns="http://www.w3.org/2000/svg">
<path d="M112.99 2.14014H6.3501C4.0305 2.14014 2.1499 4.02025 2.1499 6.33984V65.2798C2.1499 67.5994 4.0305 69.48 6.3501 69.48H112.99C115.31 69.48 117.19 67.5994 117.19 65.2798V6.33984C117.19 4.02025 115.31 2.14014 112.99 2.14014Z" stroke="white" stroke-width="4" stroke-linecap="round" stroke-linejoin="round"/>
<path d="M29.3799 34.8999H48.4299V80.02H13.8501V50.4302C13.8501 41.8602 20.8099 34.8999 29.3799 34.8999Z" stroke="white" stroke-width="4" stroke-linecap="round" stroke-linejoin="round"/>
<path d="M36.04 34.8599H58.8L76.97 26.5498L81.3601 34.8599L57.9199 47.46H38.8999" stroke="white" stroke-width="4" stroke-linecap="round" stroke-linejoin="round"/>
<path d="M77.72 27.98L87.26 23.3398L90.9099 21.5698" stroke="white" stroke-width="4" stroke-linecap="round" stroke-linejoin="round"/>
<path d="M80.77 33.7402L86.22 31.3799L87.26 23.3398" stroke="white" stroke-width="4" stroke-linecap="round" stroke-linejoin="round"/>
<path d="M30.7099 6.76991C25.3099 7.36991 20.9598 11.7999 20.4498 17.2099C19.9898 22.0299 22.48 26.2999 26.31 28.4799V33.7499H35.9498C40.2298 33.7499 43.6998 30.2799 43.6998 25.9999V18.35C43.6998 11.48 37.7499 5.99968 30.7199 6.77968L30.7099 6.76991Z" stroke="white" stroke-width="4" stroke-linecap="round" stroke-linejoin="round"/>
<path d="M28.79 18.6699C28.79 16.7299 30.3601 15.1499 32.3101 15.1499H47.3601" stroke="white" stroke-width="4" stroke-linecap="round" stroke-linejoin="round"/>
<path d="M8.96997 80.02H57.6499" stroke="white" stroke-width="4" stroke-linecap="round" stroke-linejoin="round"/>
</svg>
