<svg width="1921" height="951" viewBox="0 0 1921 951" fill="none" xmlns="http://www.w3.org/2000/svg">
<mask id="mask0_1_1834" style="mask-type:luminance" maskUnits="userSpaceOnUse" x="0" y="0" width="1921" height="951">
<path d="M1920.21 0.540039H0.209961V950.54H1920.21V0.540039Z" fill="white"/>
</mask>
<g mask="url(#mask0_1_1834)">
<path d="M1864.92 1588.11C1864.92 1588.11 2214.24 494.52 1522.64 534.87C959.65 567.71 792.42 714.52 487.36 334.95C164.23 -67.1097 -76.85 24.6503 -181.5 106.47" stroke="#642AFF" stroke-width="30" stroke-miterlimit="10"/>
<path d="M1820.64 1539.53C1848.23 1454.86 2143.49 453.92 1512.23 441.86C1260.99 437.06 1080.35 454.72 927.17 448.86C759.97 442.91 625.78 401.72 465.8 235.31C146.56 -96.7701 -84.73 9.75961 -183.25 119.32" stroke="#583FFF" stroke-width="27.5" stroke-miterlimit="10"/>
<path d="M1776.35 1490.95C1831.53 1321.61 2070.91 410.8 1501.82 348.85C1265.01 323.07 1082.54 317.57 921.93 307.52C749.62 296.74 604.25 268.98 444.25 135.66C130.16 -126.05 -92.6 -5.1499 -184.99 132.15" stroke="#4B54FF" stroke-width="25" stroke-miterlimit="10"/>
<path d="M1732.06 1442.36C1814.84 1188.36 1996.84 364.07 1491.4 255.83C1268.16 208.02 1084.72 180.68 916.67 166.17C739.23 150.85 583.65 136.35 422.68 36.0099C115.62 -155.4 -100.48 -20.0499 -186.75 144.98" stroke="#3F69FF" stroke-width="22.5" stroke-miterlimit="10"/>
<path d="M1687.77 1393.78C1798.14 1055.11 1922.1 312.74 1480.98 162.82C1270.81 91.3898 1086.89 43.85 911.42 24.83C728.85 5.04002 564.26 3.3498 401.12 -63.6402C103.47 -185.86 -108.36 -34.96 -188.49 157.81" stroke="#327EFF" stroke-width="20" stroke-miterlimit="10"/>
<path d="M1643.49 1345.2C1781.45 921.86 1848.14 256.29 1470.58 69.8101C1273.73 -27.4099 1089.07 -92.9197 906.18 -116.51C718.48 -140.72 546.01 -130.93 379.57 -163.28C93.4401 -218.91 -116.22 -49.8498 -190.23 170.66" stroke="#2694FF" stroke-width="17.5" stroke-miterlimit="10"/>
<path d="M1599.2 1296.61C1764.75 788.6 1776.86 195.18 1460.16 -23.2203C1278.11 -148.77 1091.17 -229.36 900.93 -257.86C708.04 -286.14 527.99 -267.43 358.01 -262.94C83.82 -255.69 -124.1 -64.7701 -191.98 183.48" stroke="#19A9FF" stroke-width="15" stroke-miterlimit="10"/>
<path d="M1554.91 1248.03C1748.05 655.35 1710.14 131.27 1449.75 -116.23C1285.44 -272.4 1093.34 -366.17 895.68 -399.2C697.65 -431.95 508.77 -406.21 336.45 -362.58C72.17 -295.67 -131.98 -79.6601 -193.73 196.32" stroke="#0DBEFF" stroke-width="12.5" stroke-miterlimit="10"/>
<path d="M1510.62 1199.45C1881.34 61.8804 1397.32 -447.7 890.43 -540.54C383.54 -633.38 -102.64 -297.73 -195.48 209.16" stroke="#00D3FF" stroke-width="10" stroke-miterlimit="10"/>
</g>
</svg>
